<svg aria-hidden="true" style="position: absolute; width: 0; height: 0; overflow: hidden;" version="1.1" xmlns="http://www.w3.org/2000/svg" xmlns:xlink="http://www.w3.org/1999/xlink">
<defs>
<symbol id="icon-fluent_people" viewBox="0 0 32 32">
<path d="M11.384 9.714c0-1.125 0.446-2.204 1.24-3 0.766-0.767 1.825-1.242 2.995-1.242s2.229 0.475 2.995 1.242l0 0c0.767 0.768 1.241 1.829 1.241 3s-0.474 2.232-1.241 3l0-0c-0.766 0.767-1.825 1.242-2.995 1.242s-2.229-0.475-2.995-1.242l-0-0c-0.766-0.768-1.24-1.828-1.24-2.999 0-0 0-0.001 0-0.001v0zM15.619 3.048c-1.838 0-3.502 0.746-4.706 1.952l-0 0c-1.205 1.207-1.95 2.873-1.95 4.714s0.745 3.507 1.95 4.714l-0-0c1.204 1.206 2.868 1.951 4.706 1.951s3.502-0.746 4.706-1.951l0-0c1.205-1.207 1.95-2.873 1.95-4.714s-0.745-3.507-1.95-4.714l0 0c-1.204-1.206-2.868-1.952-4.706-1.952h-0zM5.333 22.44c0-0.964 0.383-1.889 1.064-2.57 0.656-0.658 1.564-1.066 2.567-1.066h13.31c0.963 0 1.887 0.383 2.567 1.065 0.657 0.659 1.064 1.568 1.064 2.572 0 0 0 0 0 0v-0 0.273c-0.003 0.114-0.010 0.226-0.024 0.339-0.025 0.21-0.070 0.494-0.158 0.831-0.25 0.937-0.666 1.755-1.22 2.46l0.011-0.015c-1.415 1.82-4.079 3.384-8.895 3.384s-7.478-1.563-8.895-3.384c-0.543-0.69-0.96-1.508-1.199-2.398l-0.011-0.047c-0.086-0.316-0.149-0.688-0.176-1.069l-0.001-0.019c-0.001-0.023-0.002-0.052-0.002-0.080v-0.029l-0.002-0.010v-0.236zM7.753 22.656v0.015c0.017 0.204 0.052 0.406 0.103 0.604 0.11 0.421 0.33 0.991 0.776 1.564 0.853 1.096 2.728 2.45 6.987 2.45s6.135-1.354 6.987-2.448c0.347-0.442 0.614-0.966 0.767-1.536l0.007-0.030c0.053-0.198 0.087-0.4 0.105-0.604v-0.229c-0.001-0.669-0.542-1.211-1.21-1.213h-13.31c0 0 0 0 0 0-0.668 0-1.21 0.542-1.21 1.21 0 0.001 0 0.002 0 0.003v-0 0.215z"></path>
</symbol>
<symbol id="icon-alternate-email" viewBox="0 0 32 32">
<path d="M16 29.333c-1.822 0-3.544-0.35-5.167-1.050-1.65-0.713-3.060-1.68-4.249-2.867l0 0c-1.187-1.189-2.154-2.599-2.833-4.163l-0.034-0.087c-0.664-1.503-1.050-3.255-1.050-5.097 0-0.024 0-0.049 0-0.073l-0 0.004c0-1.845 0.35-3.572 1.050-5.183 0.716-1.644 1.682-3.048 2.867-4.233l-0 0c1.189-1.187 2.599-2.154 4.163-2.834l0.087-0.034c1.622-0.7 3.344-1.050 5.166-1.050 1.844 0 3.572 0.35 5.183 1.050s3.022 1.656 4.233 2.868c1.185 1.185 2.151 2.589 2.833 4.146l0.034 0.087c0.7 1.611 1.050 3.338 1.050 5.183v1.933c0 1.311-0.45 2.428-1.349 3.35s-2.006 1.384-3.317 1.384c-0.010 0-0.022 0-0.034 0-0.804 0-1.561-0.198-2.227-0.547l0.026 0.013c-0.678-0.347-1.245-0.818-1.692-1.389l-0.008-0.011c-1.199 1.195-2.853 1.934-4.68 1.934-0.019 0-0.037-0-0.056-0l0.003 0c-1.845 0-3.416-0.65-4.716-1.951-1.3-1.3-1.95-2.872-1.95-4.716s0.65-3.417 1.95-4.717 2.871-1.95 4.716-1.95c1.844 0 3.417 0.65 4.717 1.95s1.95 2.873 1.95 4.717v1.933c0 0.645 0.2 1.15 0.6 1.516 0.4 0.367 0.866 0.551 1.4 0.551s1-0.184 1.4-0.55c0.4-0.367 0.6-0.872 0.6-1.517v-1.933c0-2.911-1.050-5.417-3.151-7.517s-4.605-3.15-7.516-3.15-5.417 1.050-7.517 3.15c-2.1 2.1-3.15 4.606-3.15 7.517s1.050 5.416 3.15 7.516c2.1 2.1 4.606 3.15 7.517 3.15h6.667v2.667h-6.667zM16 20c1.111 0 2.055-0.389 2.833-1.167 0.778-0.777 1.167-1.722 1.167-2.833s-0.389-2.056-1.167-2.833c-0.777-0.778-1.722-1.167-2.833-1.167s-2.056 0.389-2.833 1.167c-0.778 0.777-1.167 1.722-1.167 2.833s0.389 2.055 1.167 2.833c0.777 0.778 1.722 1.167 2.833 1.167z"></path>
</symbol>
<symbol id="icon-phone" viewBox="0 0 32 32">
<path d="M27.833 29.333c-3.466 0-6.727-0.655-9.782-1.966-3.056-1.312-5.723-3.106-8-5.383-2.279-2.278-4.079-4.945-5.4-8-1.323-3.056-1.984-6.328-1.984-9.817-0.023-0.4 0.11-0.75 0.4-1.051 0.289-0.3 0.644-0.45 1.066-0.45h5.2c0.4 0 0.745 0.15 1.034 0.45 0.288 0.3 0.433 0.662 0.433 1.084 0 0.978 0.067 1.9 0.2 2.767s0.344 1.689 0.633 2.466c0.111 0.245 0.134 0.495 0.067 0.75s-0.2 0.495-0.4 0.717l-3.333 3.333c0.955 1.956 2.31 3.811 4.066 5.567 1.756 1.755 3.645 3.155 5.667 4.2l3.333-3.333c0.2-0.2 0.434-0.334 0.7-0.4 0.267-0.067 0.534-0.045 0.8 0.066 0.709 0.24 1.567 0.454 2.449 0.602l0.101 0.014c0.878 0.145 1.784 0.218 2.717 0.218 0.422 0 0.784 0.155 1.084 0.466s0.45 0.69 0.45 1.134v5.1c0 0.4-0.145 0.744-0.434 1.033-0.263 0.268-0.629 0.433-1.034 0.433-0.012 0-0.023-0-0.035-0l0.002 0zM20.167 25.333c1 0.378 2.044 0.678 3.133 0.9 1.089 0.223 2.211 0.367 3.367 0.434v-2.867c-0.81-0.054-1.537-0.137-2.254-0.251l0.138 0.018c-0.827-0.129-1.553-0.303-2.255-0.529l0.104 0.029-2.233 2.266zM26.667 16c0-2.978-1.034-5.5-3.1-7.567-2.067-2.066-4.59-3.1-7.567-3.1v-2.666c1.844 0 3.578 0.35 5.2 1.049 1.622 0.7 3.033 1.65 4.233 2.85 1.18 1.185 2.141 2.59 2.816 4.147l0.034 0.087c0.7 1.622 1.050 3.355 1.050 5.2h-2.666zM21.333 16c0-1.467-0.522-2.722-1.566-3.767s-2.3-1.566-3.767-1.566v-2.667c2.222 0 4.111 0.778 5.667 2.333 1.555 1.557 2.333 3.445 2.333 5.667h-2.667zM6.667 11.767l2.2-2.234c-0.153-0.523-0.31-1.208-0.432-1.906l-0.019-0.127c-0.111-0.61-0.2-1.354-0.247-2.11l-0.003-0.057h-2.8c0.045 1.067 0.178 2.134 0.4 3.2s0.523 2.145 0.9 3.234z"></path>
</symbol>
<symbol id="icon-dog" viewBox="0 0 32 32">
<path d="M6.467 29.333v-12.8l-0.367-0.366c-0.24-0.241-0.432-0.529-0.561-0.85l-0.006-0.017c-0.127-0.305-0.2-0.66-0.2-1.031 0-0.001 0-0.001 0-0.002v0c-0-0.003-0-0.007-0-0.011 0-0.724 0.293-1.38 0.767-1.856l-0 0 4.367-4.4h5.333l5.333-5.333 2.734 2.733c0.851 0.845 1.547 1.845 2.041 2.954l0.025 0.062c0.464 1.042 0.734 2.257 0.734 3.535 0 0.017-0 0.034-0 0.051v-0.003c0 0.014 0 0.031 0 0.049 0 1.278-0.27 2.494-0.757 3.592l0.022-0.057c-0.519 1.171-1.215 2.171-2.065 3.015l-2.735 2.734v8h-14.666zM9.133 26.667h9.334v-6.434l3.5-3.5c0.614-0.608 1.119-1.326 1.482-2.121l0.018-0.045c0.355-0.8 0.533-1.656 0.533-2.567 0-0.889-0.184-1.733-0.55-2.533-0.389-0.836-0.886-1.552-1.486-2.169l0.002 0.002-0.834-0.867-4.233 4.234h-5.333l-0.767 0.766 2.233 2.234c0.602 0.6 1.092 1.314 1.434 2.105l0.017 0.044c0.326 0.747 0.516 1.617 0.516 2.532 0 0.006 0 0.013-0 0.019v-0.001c0 0.006 0 0.014 0 0.021 0 0.913-0.184 1.782-0.516 2.574l0.016-0.044c-0.357 0.85-0.853 1.576-1.466 2.182l-0.001 0.001-3.9-3.9v7.467z"></path>
</symbol>
<symbol id="icon-bathing" viewBox="0 0 32 32">
<path d="M22.772 14.919c-0.266-0.621-0.695-1.13-1.234-1.485l-0.012-0.008c-0.399-0.257-1.946-0.463-1.995 0.978 0 0-0.649 0.103-0.599 0.567 0 0-0.399 1.39 1.496 1.235 0 0 0.349 2.625 0.648 3.192 0 0 0.15 0.515 0.2 1.030h0.798l0.050-1.030s0.449 0.309 0.798 1.030h1.147c-0.050-0.412-0.1-0.772-0.2-1.030 0 0 1.696 0 2.295-0.772 0 0 0.499 0.978 1.097 1.029v0.824h0.798c0.050-0.154 0.050-0.309 0.1-0.566 0 0 0.299 0.155 0.449 0.567h0.698c-0.1-0.361-0.998-3.707-1.297-3.964 0 0 0.449-0.051 0.598 0.515 0 0 0.249 1.184 0.748 1.133 0 0 0.349-0.772-0.249-1.75 0 0-0.25-0.721-1.547-0.618l-3.741-0.103c-0.455-0.093-0.83-0.378-1.044-0.764l-0.004-0.008zM18.233 10.955c0.299-0.412 0.249-1.030-0.15-1.39-0.399-0.309-0.997-0.257-1.347 0.154-0.948 1.236-2.643 1.441-3.841 0.927l-0.648 1.853c2.045 0.823 4.539 0.412 5.986-1.544zM9.753 7.712c1.35 0 2.444-1.129 2.444-2.522s-1.094-2.523-2.444-2.523-2.444 1.129-2.444 2.523c0 1.393 1.094 2.522 2.444 2.522z"></path>
<path d="M11.2 20.993l-2.095-0.875 1.247-3.655c-2.793-1.596-3.791-4.118-3.841-4.273-0.299-0.772 0.050-1.596 0.798-1.905s1.547 0.052 1.846 0.824c0.050 0.103 0.648 1.442 2.195 2.523l0.948-2.677c0.1-0.309 0.050-0.618-0.149-0.875-1.796-2.059-3.891-2.831-6.185-2.111-0.648 0.206-1.097 0.721-1.247 1.39l-1.995 10.708v0.309l0.1 4.891-1.098-0.257c-0.748-0.154-1.546 0.36-1.696 1.133s0.349 1.596 1.097 1.75l2.843 0.618c0.449 0.103 0.848 0 1.197-0.309s0.549-0.721 0.499-1.184l-0.1-5.148 3.642 1.493v4.478c0 0.824 0.648 1.493 1.447 1.493s1.446-0.669 1.446-1.493v-5.457c0.050-0.618-0.349-1.133-0.898-1.39z"></path>
<path d="M15.041 15.382c-4.739-0.36-6.235-3.913-6.285-4.067-0.2-0.515-0.748-0.721-1.247-0.515s-0.698 0.772-0.499 1.287c0.1 0.206 1.995 4.839 7.931 5.303 0.549 0.051 0.998-0.36 0.998-0.927s-0.349-1.030-0.898-1.081zM23.57 8.69c-0.997 0.206-1.746 1.132-1.746 2.213h4.439c0-1.184-0.848-2.111-1.945-2.265-1.497-1.699-3.891-1.030-5.786 0.669 0.1 0.103 0.199 0.257 0.299 0.412 1.347-1.287 3.192-2.162 4.738-1.029zM31.152 20.891h-14.017c-0.399 0-0.748 0.36-0.748 0.772s0.349 0.772 0.748 0.772h0.15v1.287c0 2.008 1.596 3.655 3.541 3.655h6.734c1.945 0 3.541-1.647 3.541-3.655v-1.287h0.15c0.399 0 0.748-0.36 0.748-0.772-0.1-0.463-0.449-0.772-0.848-0.772zM22.223 11.933l0.050-0.463c0-0.155-0.050-0.258-0.2-0.258s-0.249 0.051-0.249 0.206l-0.050 0.463c0 0.154 0.050 0.257 0.2 0.257 0.1 0 0.2-0.103 0.249-0.206zM21.625 12.551l-0.050 0.463c0 0.154 0.050 0.257 0.2 0.257s0.249-0.052 0.249-0.206l0.050-0.463c0-0.154-0.050-0.257-0.2-0.257-0.1 0-0.199 0.103-0.249 0.206zM23.321 12.139c0.15 0 0.249-0.103 0.249-0.257v-0.515c0-0.154-0.1-0.257-0.249-0.257s-0.249 0.103-0.249 0.257v0.515c0 0.103 0.15 0.257 0.249 0.257zM23.021 13.066c0 0.154 0.1 0.257 0.25 0.257s0.249-0.103 0.249-0.257v-0.515c0-0.154-0.1-0.257-0.249-0.257s-0.25 0.103-0.25 0.257v0.515zM24.668 11.161c-0.15 0-0.25 0.103-0.25 0.257v0.515c0 0.155 0.1 0.258 0.25 0.258s0.249-0.103 0.249-0.258v-0.515c0-0.154-0.1-0.257-0.249-0.257zM24.518 12.602v0.515c0 0.155 0.1 0.258 0.249 0.258s0.249-0.103 0.249-0.258v-0.515c0-0.154-0.1-0.257-0.249-0.257-0.2 0-0.299 0.103-0.249 0.257zM25.964 11.161c-0.15 0-0.199 0.154-0.199 0.257l0.050 0.463c0 0.103 0.1 0.206 0.249 0.206s0.249-0.155 0.249-0.309l-0.1-0.412c0-0.154-0.15-0.257-0.249-0.206zM25.915 12.654l0.050 0.463c0 0.103 0.149 0.206 0.249 0.206 0.15 0 0.249-0.154 0.199-0.257v-0.515c0-0.155-0.15-0.206-0.249-0.206-0.15 0.051-0.249 0.154-0.249 0.309z"></path>
</symbol>
<symbol id="icon-grooming" viewBox="0 0 32 32">
<path d="M21.1 9.363c-0.084-0.371-0.315-0.65-0.633-0.765-0.022-0.008-0.046-0.009-0.069-0.016 0.228-1.036 0.87-4.801-1.233-7.004-1.22-1.277-3.122-1.782-5.651-1.503-0.044-0.018-0.095-0.030-0.149-0.032l-0.001-0c-1.986-0.064-3.507 0.484-4.504 1.626-1.953 2.237-1.246 6.013-1.042 6.908-0.030 0.008-0.061 0.010-0.090 0.020-0.318 0.115-0.549 0.394-0.634 0.765-0.076 0.331-0.033 0.713 0.118 1.075 0.278 0.665 0.841 1.090 1.381 1.090 0.058 0 0.115-0.005 0.172-0.015 0.459 1.357 1.223 2.486 2.487 3.179v1.391h-0.656v3.925h7.002v-3.925h-0.657v-1.383c1.266-0.692 2.031-1.824 2.489-3.187 0.056 0.010 0.113 0.014 0.17 0.014 0.54 0 1.103-0.425 1.382-1.089 0.152-0.363 0.193-0.745 0.118-1.075zM7.814 10.219c-0.105-0.251-0.137-0.518-0.088-0.732 0.039-0.169 0.125-0.289 0.236-0.33 0.028-0.010 0.061-0.016 0.095-0.016 0.001 0 0.002 0 0.003 0h-0c0.063 0 0.133 0.018 0.205 0.051 0.074 0.599 0.179 1.18 0.326 1.732-0.247-0.005-0.593-0.269-0.776-0.705zM17.312 16.684c-0.643 0.629-1.84 1.052-3.215 1.052s-2.572-0.424-3.215-1.052h0.693c0.179 0 0.323-0.135 0.323-0.301v-1.392c0.63 0.241 1.362 0.392 2.215 0.432 0.839-0.040 1.56-0.188 2.182-0.425v1.385c0 0.166 0.145 0.301 0.323 0.301h0.693zM19.296 8.874c-0.028 0.266-0.053 0.453-0.080 0.64l0.011-0.092c-0.075 0.51-0.165 0.944-0.278 1.37l0.019-0.086c-0.039 0.153-0.084 0.299-0.13 0.444-0.396 1.263-1.020 2.247-1.983 2.876-0.143 0.093-0.297 0.174-0.454 0.251-0.633 0.312-1.384 0.503-2.289 0.546-0.902-0.043-1.653-0.231-2.287-0.537-0.19-0.090-0.348-0.179-0.5-0.277l0.017 0.010c-0.966-0.63-1.591-1.612-1.988-2.872-0.030-0.082-0.074-0.23-0.115-0.38l-0.015-0.064c-0.093-0.339-0.184-0.772-0.25-1.213l-0.008-0.068c-0.088-0.594-0.157-1.32-0.19-2.055l-0.002-0.049c0.076-0.441 0.187-0.807 0.319-1.107 0.426-0.072 0.806-0.189 1.164-0.347l-0.031 0.012c0.080 0.102 0.215 0.167 0.353 0.158 0.072-0.003 1.024-0.054 2.030-0.421-0.005 0.042-0.002 0.086 0.009 0.129 0.043 0.168 0.203 0.288 0.389 0.292 0.087 0.003 1.797 0.022 2.853-1.101 0.407 0.908 1.322 2.395 3.187 3.328l0.278 0.357c-0.009 0.087-0.020 0.17-0.030 0.255zM20.379 10.219c-0.181 0.435-0.527 0.699-0.773 0.705 0.145-0.552 0.25-1.132 0.324-1.731 0.072-0.033 0.142-0.051 0.205-0.051 0.035 0 0.068 0.005 0.097 0.016 0.153 0.055 0.213 0.23 0.236 0.33 0.049 0.214 0.016 0.481-0.089 0.732zM13.364 11.002v-0.843c0-0.166 0.145-0.301 0.323-0.301s0.323 0.135 0.323 0.301v0.775h0.497c0.179 0 0.323 0.135 0.323 0.301s-0.145 0.301-0.323 0.301h-0.57c-0.316 0-0.573-0.239-0.573-0.533zM11.819 9.069c0 0.323-0.282 0.585-0.629 0.585s-0.629-0.262-0.629-0.585 0.282-0.586 0.629-0.586c0.347 0 0.629 0.262 0.629 0.586zM17.633 9.069c0 0.323-0.281 0.585-0.629 0.585s-0.629-0.262-0.629-0.585 0.282-0.586 0.629-0.586 0.629 0.262 0.629 0.586zM15.679 12.854c0 0.485-0.817 0.658-1.582 0.658s-1.582-0.173-1.582-0.658c0-0.166 0.145-0.301 0.323-0.301 0.144 0 0.266 0.088 0.308 0.209 0.108 0.059 0.448 0.149 0.951 0.149s0.843-0.089 0.951-0.149c0.042-0.121 0.164-0.209 0.308-0.209 0.178 0 0.323 0.135 0.323 0.301zM31.891 22.231c-0.096-0.151-0.237-0.267-0.404-0.329l-0.006-0.002c0.007-0.036 0.010-0.078 0.010-0.121 0-0.139-0.039-0.268-0.107-0.378l0.002 0.003c-0.096-0.151-0.237-0.267-0.404-0.329l-0.006-0.002c0.027-0.165 0-0.339-0.095-0.496s-0.243-0.267-0.409-0.33c0.007-0.037 0.010-0.079 0.010-0.122 0-0.138-0.039-0.268-0.107-0.378l0.002 0.003c-0.113-0.179-0.289-0.31-0.496-0.362l-0.006-0.001c-0.066-0.018-0.142-0.028-0.22-0.028-0.15 0-0.291 0.037-0.415 0.104l0.005-0.002-0.327 0.173c-0.067-0.1-0.148-0.183-0.243-0.25l-0.003-0.002v-0.329h1.831c0.179 0 0.323-0.135 0.323-0.301s-0.145-0.301-0.323-0.301h-1.831v-0.3h1.831c0.179 0 0.323-0.135 0.323-0.301s-0.145-0.3-0.323-0.3h-1.831v-0.301h1.831c0.179 0 0.323-0.135 0.323-0.301s-0.145-0.301-0.323-0.301h-1.831v-0.301h1.831c0.179 0 0.323-0.135 0.323-0.301s-0.145-0.301-0.323-0.301h-1.831l0.002-0.301h1.829c0.179 0 0.323-0.135 0.323-0.301s-0.145-0.301-0.323-0.301h-1.829c-0.363 0-0.648 0.308-0.648 0.702v1.448c-0.028-0.342-0.164-0.685-0.404-0.98-0.59-0.728-1.602-0.947-2.253-0.489-0.339 0.239-0.512 0.615-0.519 1.023-0.424-0.105-0.861-0.054-1.2 0.184-0.327 0.23-0.519 0.603-0.527 1.023-0.006 0.389 0.141 0.789 0.416 1.127s0.648 0.579 1.052 0.68c0.135 0.033 0.27 0.050 0.402 0.050 0.294 0 0.573-0.082 0.799-0.241 0.021-0.015 0.037-0.035 0.057-0.051l1.014 1.131-0.366 0.734c-0.028 0.045-0.053 0.091-0.076 0.139l-2.131 1.124-3.636-5.555c-0.093-0.136-0.196-0.254-0.313-0.358l-0.002-0.002c-0.197-0.234-0.472-0.396-0.785-0.448l-0.008-0.001c-0.196-0.064-0.421-0.1-0.655-0.1-0.115 0-0.228 0.009-0.338 0.026l0.012-0.002v4.029c0.079 0.023 0.152 0.056 0.216 0.1 0.119 0.083 0.206 0.2 0.241 0.338l0.082 0.318 1.508 5.879v-2.518l1.211 1.851c0.385 0.588 1.058 0.914 1.75 0.914 0.343 0 0.69-0.080 1.008-0.248l3.88-2.048c0.016-0.008 0.028-0.020 0.044-0.029 0.030 0.002 0.061 0.006 0.091 0.006 0.252 0 0.508-0.059 0.743-0.183l0.729-0.385 0.044 0.050c0.147 0.164 0.407 0.192 0.591 0.063l0.133-0.094 0.141-0.099 0.133-0.094c0.134-0.094 0.185-0.254 0.148-0.409l0.317-0.168c0.187-0.097 0.327-0.262 0.389-0.461l0.001-0.006c0.019-0.062 0.030-0.133 0.030-0.206 0-0.141-0.040-0.272-0.11-0.383l0.002 0.003zM30.011 20.843l0.059-0.031c0.026-0.014 0.057-0.022 0.091-0.022 0.017 0 0.034 0.002 0.050 0.006l-0.001-0c0.047 0.012 0.086 0.040 0.111 0.079l0 0.001c0.050 0.082 0.019 0.187-0.069 0.233l-0.059 0.031-0.787 0.416c-0.026 0.014-0.058 0.022-0.091 0.022-0.017 0-0.034-0.002-0.050-0.006l0.001 0c-0.047-0.012-0.086-0.041-0.11-0.080l-0-0.001c-0.015-0.024-0.024-0.054-0.024-0.085 0-0.065 0.037-0.121 0.091-0.148l0.001-0 0.787-0.416zM28.973 20.375l0.008-0.016c0.006-0.012 0.008-0.025 0.013-0.037 0.006-0.014 0.010-0.028 0.015-0.043l0.555-0.294c0.026-0.014 0.058-0.022 0.091-0.022 0.017 0 0.034 0.002 0.050 0.006l-0.001-0c0.047 0.012 0.086 0.040 0.111 0.079l0 0.001c0.014 0.023 0.022 0.051 0.022 0.081 0 0.029-0.008 0.056-0.021 0.079l0-0.001c-0.016 0.032-0.040 0.057-0.070 0.074l-0.001 0-0.846 0.447c-0.025 0.013-0.055 0.020-0.086 0.020-0.010 0-0.020-0.001-0.030-0.002l0.001 0 0.187-0.373zM25.273 18.735c-0.156 0.109-0.355 0.082-0.46 0.056-0.216-0.054-0.43-0.195-0.587-0.389s-0.245-0.423-0.241-0.632c0.002-0.101 0.028-0.286 0.184-0.396 0.078-0.055 0.175-0.081 0.279-0.081 0.253 0 0.555 0.152 0.767 0.413 0.299 0.369 0.325 0.839 0.058 1.027zM25.946 17.194c-0.299-0.369-0.325-0.839-0.057-1.027 0.078-0.055 0.174-0.081 0.279-0.081 0.253 0 0.555 0.153 0.767 0.414 0.157 0.193 0.245 0.423 0.242 0.631-0.002 0.101-0.028 0.286-0.184 0.396s-0.355 0.082-0.459 0.056c-0.217-0.054-0.43-0.196-0.587-0.389zM26.778 19.61c-0.147-0.182-0.109-0.44 0.087-0.577s0.473-0.101 0.62 0.081c0.052 0.063 0.073 0.137 0.080 0.21-0.121 0.073-0.223 0.172-0.287 0.299l-0.070 0.141c-0.159 0.026-0.327-0.025-0.43-0.153zM29.319 23.741l-0.296 0.156c-0.413 0.219-0.942 0.083-1.177-0.301l-0.799-1.307c-0.071-0.112-0.113-0.249-0.113-0.396 0-0.076 0.011-0.15 0.033-0.22l-0.001 0.005 0.003-0.007 0.106-0.213 0.79-1.583c0.023-0.045 0.085-0.075 0.162-0.082 0.057-0.005 0.121 0.001 0.187 0.030s0.113 0.071 0.145 0.114c0.007 0.010 0.016 0.019 0.021 0.029 0.027 0.050 0.034 0.1 0.015 0.138l-0.793 1.584c-0.013 0.025-0.015 0.051-0.020 0.078-0.023 0.13 0.042 0.263 0.177 0.322 0.044 0.019 0.090 0.028 0.136 0.028 0.046 0 0.090-0.012 0.132-0.029v1.428c0 0.166 0.145 0.301 0.323 0.301s0.323-0.135 0.323-0.301v-1.042l0.979 1.092-0.333 0.176zM29.91 22.382c-0.026 0.014-0.057 0.022-0.091 0.022-0.017 0-0.034-0.002-0.050-0.006l0.001 0c-0.047-0.012-0.086-0.041-0.11-0.080l-0-0.001c-0.015-0.024-0.024-0.054-0.024-0.085 0-0.065 0.037-0.121 0.091-0.148l0.001-0 0.846-0.447c0.026-0.014 0.057-0.022 0.090-0.022 0.017 0 0.034 0.002 0.050 0.006l-0.001-0c0.047 0.012 0.086 0.040 0.11 0.079l0 0.001c0.050 0.082 0.019 0.187-0.068 0.233l-0.059 0.031-0.787 0.416zM31.347 22.658c-0.014 0.045-0.045 0.081-0.085 0.102l-0.001 0h-0l-0.152 0.080-0.693 0.367c-0.025 0.013-0.055 0.021-0.086 0.021-0.013 0-0.025-0.001-0.037-0.004l0.001 0c-0.054-0.007-0.1-0.038-0.129-0.081l-0-0.001c-0.015-0.024-0.023-0.054-0.023-0.085 0-0.065 0.037-0.121 0.092-0.148l0.001-0 0.846-0.447c0.026-0.014 0.057-0.022 0.090-0.022h0c0.005 0 0.010 0.001 0.015 0.002 0.061 0.003 0.114 0.036 0.145 0.085l0 0.001c0.024 0.040 0.030 0.086 0.017 0.13zM20.551 31.362l-0.18-3.894c-0.001-0.011-0.002-0.022-0.005-0.032l0 0.001-1.761-6.865c-0.008-0.027-0.021-0.051-0.038-0.070l0 0c-0.048-0.057-0.131-0.093-0.225-0.093h-8.492c-0.093 0-0.177 0.037-0.224 0.093-0.017 0.019-0.031 0.043-0.038 0.068l-0 0.001-1.546 6.030-0.24-0.126c-0.051-0.026-0.102-0.047-0.153-0.068l1.52-5.928c0.039-0.141 0.125-0.259 0.24-0.337l0.002-0.001c0.063-0.044 0.137-0.078 0.216-0.1v-4.014c-0.754-0.227-1.614-0.035-2.17 0.554l-6.948 7.366c-0.386 0.409-0.565 0.951-0.493 1.49s0.389 1.025 0.87 1.333l3.986 2.556c0.124 0.080 0.256 0.14 0.391 0.191 0.163 0.174 0.354 0.32 0.565 0.431l0.012 0.006 1.815 0.941c0.003 0.002 0.007 0.002 0.011 0.004l-0.022 0.464-0.020 0.431c-0 0.001-0 0.002-0 0.003 0 0.049 0.021 0.094 0.055 0.125l0 0c0.054 0.049 0.125 0.079 0.204 0.079 0.003 0 0.005-0 0.008-0h12.413c0.002 0 0.005 0 0.008 0 0.079 0 0.15-0.030 0.204-0.079l-0 0c0.034-0.031 0.056-0.075 0.056-0.125 0-0.001 0-0.002-0-0.004v0l-0.020-0.432zM5.103 24.849l2.477-2.626v4.153c-0.065-0.026-0.146-0.051-0.229-0.073l-0.015-0.003c-0.048-0.037-0.089-0.078-0.141-0.111l-2.091-1.341zM9.953 28.41c-0.021 0.032-0.056 0.053-0.097 0.053-0.019 0-0.038-0.005-0.054-0.013l0.001 0-1.469-0.762c-0.082-0.042-0.177-0.039-0.263-0.008-0.080 0.028-0.146 0.080-0.19 0.148l-0.001 0.001c-0.026 0.042-0.041 0.093-0.041 0.147 0 0.029 0.004 0.058 0.013 0.084l-0.001-0.002c0.026 0.079 0.080 0.143 0.152 0.18l0.002 0.001 0.001 0.001 1.759 0.912c0.025 0.013 0.043 0.035 0.051 0.061l0 0.001c0.003 0.009 0.004 0.018 0.004 0.029 0 0.018-0.005 0.035-0.014 0.049l0-0c-0.015 0.024-0.038 0.041-0.065 0.048l-0.001 0c-0.009 0.003-0.020 0.004-0.030 0.004-0.019 0-0.038-0.005-0.054-0.013l0.001 0-1.76-0.913c-0.033-0.017-0.072-0.027-0.113-0.029l-0.001-0c-0.006-0-0.012-0-0.019-0-0.068 0-0.132 0.018-0.186 0.051l0.002-0.001c-0.006 0.003-0.012 0.006-0.018 0.009-0.049 0.028-0.089 0.066-0.119 0.111l-0.001 0.001c-0.026 0.042-0.041 0.093-0.041 0.147 0 0.029 0.004 0.057 0.013 0.084l-0.001-0.002c0.020 0.066 0.067 0.12 0.126 0.159 0.010 0.007 0.017 0.017 0.028 0.022l0.013 0.007 0.015 0.008 1.441 0.747c0.025 0.013 0.044 0.035 0.052 0.061l0 0.001c0.003 0.009 0.004 0.018 0.004 0.028 0 0.018-0.005 0.035-0.014 0.049l0-0c-0.021 0.032-0.057 0.052-0.097 0.052-0.019 0-0.037-0.005-0.053-0.013l0.001 0-1.634-0.846c-0.102-0.053-0.259-0.033-0.359 0.025-0.091 0.052-0.152 0.148-0.152 0.259 0 0.001 0 0.003 0 0.004v-0c0.003 0.058 0.022 0.111 0.054 0.155l-0.001-0.001c0.028 0.041 0.065 0.077 0.112 0.101l1.125 0.583c0.025 0.013 0.043 0.034 0.051 0.061l0 0.001c0.003 0.008 0.004 0.018 0.004 0.028 0 0.018-0.005 0.035-0.014 0.050l0-0c-0.021 0.032-0.056 0.053-0.097 0.053-0.019 0-0.037-0.005-0.053-0.013l0.001 0-1.815-0.941c-0.296-0.153-0.528-0.397-0.663-0.693l-0.004-0.009c-0.175-0.402-0.155-0.841 0.052-1.175 0.275-0.425 0.746-0.703 1.282-0.707h0c0.22 0 0.448 0.051 0.674 0.162 0.007 0.003 0.013 0.005 0.020 0.008l0.065 0.034 2.33 1.222c0.025 0.013 0.043 0.035 0.052 0.061l0 0.001c0.003 0.009 0.005 0.019 0.005 0.029 0 0.018-0.005 0.035-0.014 0.049l0-0zM17.943 26.919c-0.010 0.528-0.557 0.759-0.837 0.351l-0.281-0.41c-0.081 0.259-0.195 0.485-0.34 0.687l0.005-0.007c0.001 0.032 0.005 0.064 0.005 0.097 0 1.363-1.073 2.468-2.398 2.468s-2.398-1.105-2.398-2.468c0-0.033 0.003-0.064 0.005-0.097-0.14-0.195-0.255-0.42-0.331-0.662l-0.005-0.017-0.281 0.41c-0.279 0.408-0.827 0.177-0.837-0.351-0.004-0.276-0.016-0.539-0.034-0.799l0.003 0.046c-0.061-0.882 1.229-1.295 1.81-1.436 0.517-0.346 1.251-0.501 2.068-0.501s1.551 0.156 2.068 0.501c0.581 0.141 1.871 0.555 1.81 1.436-0.016 0.214-0.027 0.476-0.032 0.741l-0 0.013zM13.114 28.749c0-0.371 0.44-0.672 0.982-0.672s0.983 0.301 0.983 0.672c0 0.371-0.44 0.672-0.983 0.672s-0.982-0.301-0.982-0.672z"></path>
</symbol>
<symbol id="icon-nutrition" viewBox="0 0 32 32">
<path d="M22.415 19.13c-0.748-0.147-1.489 0.341-1.802 1.188-0.055 0.146-0.099 0.317-0.124 0.494l-0.001 0.013c0.78-0.468 1.449-1.023 2.023-1.666l0.007-0.008-0.103-0.020zM23.109 10.927c1.403-1.12 1.801-3.423 0.888-5.144s-2.791-2.208-4.194-1.088c-1.403 1.12-1.801 3.423-0.888 5.144s2.79 2.208 4.193 1.088zM28.673 11.865c-1.311-1.991-3.092-2.014-4.075-1.202s-0.911 2.874-0.090 4.259c0.037 0.076 0.077 0.156 0.116 0.234 0.283-1.053 0.323-1.817 0.323-1.828 0.029-0.893 0.62-1.591 1.345-1.591 0.017 0 0.034 0 0.050 0.001 0.743 0.033 1.324 0.801 1.297 1.712v0.003l-0.001 0.015c-0.022 0.51-0.164 2.343-1.067 4.522-0.083 0.2-0.179 0.419-0.291 0.651 0.129 0.278 0.311 0.726 0.48 1.18l0.057 0.176-1.149-0.227c-0.777 1.277-1.967 2.726-3.737 3.862l5.138 5.216c0.314 0.319 0.695 0.475 1.073 0.475 0.484 0 0.965-0.255 1.298-0.749 0.593-0.879 0.493-2.181-0.223-2.909l-1.236-1.255 0.4 0.079c0.124 0.024 0.246 0.030 0.367 0.022 0.29 0.017 0.631-0.107 1.051-0.287 1.166-0.498 2.488-1.377 2.144-4.055-0.693-3.598-1.482-5.555-3.272-8.306z"></path>
<path d="M26.332 17.841c0.97-2.342 1.033-4.28 1.039-4.402 0.022-0.73-0.442-1.343-1.037-1.37s-1.093 0.541-1.117 1.269c-0.002 0.084-0.092 1.678-0.879 3.474-0.796 1.799-2.226 3.82-5.122 5.003-0.565 0.229-0.873 0.976-0.686 1.67 0.149 0.555 0.571 0.908 1.023 0.908 0.112 0 0.226-0.021 0.338-0.067 3.541-1.421 5.48-4.147 6.441-6.486zM12.134 24.129c0.49 0.114 1.079 0.302 1.235 0.505 0.42 0.543 0.625 1.665 1.169 1.744 0.38 0.055 0.514 0.045 0.985-0.328 0.465-0.369 0.023-1.805-0.088-2.357-0.157-0.783 0.218-1.643 0.224-1.696 0.005-0.043 0.328-0.875 1.263-0.559 0.326 0.111 0.135-0.629-0.376-0.999-0.608-0.439-1.047-0.234-1.492 0.193-0.858-0.805-2.202-0.648-2.966-0.298-0.108 0.52-0.169 1.117-0.169 1.729 0 0.005 0 0.011 0 0.016v-0.001c0.001 0.726 0.079 1.434 0.227 2.116l-0.012-0.066zM14.312 22.392c0.2-0.167 0.472-0.103 0.608 0.141s0.085 0.579-0.115 0.746c-0.2 0.167-0.473 0.104-0.609-0.141s-0.085-0.579 0.116-0.746zM11.538 20.317c-0.199 0.003-0.388-0.004-0.569-0.021-0.051-0.017-0.111-0.028-0.172-0.028-0.009 0-0.018 0-0.026 0.001l0.001-0c-0.004 0-0.008 0.002-0.012 0.002-2.749-0.383-3.497-2.933-6.708-0.287-0.97-0.35-2.126-1.101-3.002-2.705-0.177-0.323-0.533-0.407-0.796-0.19-0.263 0.217-0.333 0.653-0.155 0.976 0.833 1.51 1.863 2.394 2.829 2.913-0.011 0.029-0.023 0.063-0.035 0.097-0.248 0.457-0.442 1.059-0.568 1.861-0.018 0.117-0.804 6.273 0.431 6.273s1.574-4.657 2.264-5.253c0.097 0.011 1.929 2.365 3.494 2.069 0.367-0.070 0.863-0.347 1.277-0.643l0.677 3.324c0.077 0.373 0.348 0.626 0.653 0.626 0.033 0 0.067-0.003 0.101-0.009 0.344-0.063 0.591-0.434 0.573-0.86l-0.176-4.139c-0.15-0.675-0.237-1.45-0.238-2.245v-0.001c0-0.549 0.044-1.144 0.158-1.763zM17.55 28.446h-0.17l-0.347-1.319h-3.889l-0.347 1.319h-0.17c-0.137 0-0.248 0.136-0.248 0.305s0.111 0.304 0.248 0.304h4.923c0.137 0 0.248-0.136 0.248-0.304s-0.111-0.305-0.248-0.305z"></path>
</symbol>
<symbol id="icon-training" viewBox="0 0 32 32">
<path d="M6.231 25.595l1.153-3.878-0.419-1.143c-0.891-0.149-1.626-0.597-2.098-1.193l-1.573 5.22-3.093 5.221c-0.42 0.696-0.157 1.591 0.577 1.989s1.678 0.149 2.098-0.547l3.251-5.37c0.052-0.099 0.105-0.199 0.105-0.298zM1.090 14.764c0.483 0.253 1.127 0.051 1.395-0.456l2.413-4.658 0.429-0.303 0.215-1.266c0.107-0.658 0.429-1.266 0.858-1.772l-2.896 1.772c-0.161 0.101-0.268 0.253-0.376 0.405l-2.521 4.911c-0.268 0.506-0.053 1.114 0.483 1.367zM10.338 5.408c1.632 0 2.954-1.211 2.954-2.704s-1.323-2.704-2.954-2.704-2.954 1.211-2.954 2.704c0 1.493 1.322 2.704 2.954 2.704zM28.969 25.591s0.052 0.050 0.052 0.099c0.418-0.249 0.575-0.797 0.575-0.797 1.569 0.448 1.883-0.947 1.883-0.947 0.209-0.398-0.837-0.797-0.837-0.797-0.052-0.996-1.255-1.295-1.255-1.295-0.575-0.498-0.418 0-0.418 0-0.575-0.050-0.942 0.15-0.942 0.15-0.942-0.847-1.517 0.448-1.517 0.448-0.157 0-0.262 0.050-0.419 0.050 0.942 1.195 1.935 2.241 2.877 3.088zM30.429 28.782c-0.272-0.252-2.228-1.362-2.228-1.362 0.435-0.202 0.489-1.059 0.489-1.362-1.032-0.908-2.119-2.068-3.205-3.379-0.543 0.101-4.129 1.513-7.606 0.051-1.304-0.555-2.445 0.252-2.445 0.252-0.978 1.059-0.543 2.774-0.543 2.774l1.358-1.362c0.706-0.504 0.978-0.403 1.141-0.151 0.109 0.202 0.054 0.454-0.109 0.656-1.304 1.261-0.869 2.572-0.869 2.572l-1.847 1.513c-0.706 0.706 0.109 1.261 0.109 1.261 0.163-0.555 1.467-1.412 1.467-1.412-0.054 0.656 0.272 0.807 0.272 0.807 0.923-0.252 0.706-1.109 0.706-1.109 1.467-0.050 1.63-0.656 1.63-0.656 1.467 0.252 2.173-0.655 2.173-0.655 0.38 0.655 3.694 1.362 3.694 1.362 0.217 0.101 1.467 2.421 1.467 2.421 0.272 0.050 0.543 0.403 0.543 0.403 0.598 0.353 1.847-0.050 1.847-0.050-0.109-0.454-0.761-0.454-0.761-0.454-1.467 0-1.249-2.269-1.249-2.269 0.054-0.303 1.195 0.252 1.195 0.252l2.499 0.858c1.249 0.605 1.793-0.101 1.793-0.101 0.38-0.555-1.521-0.857-1.521-0.857zM18.215 11.014c1.241 2.511 3.885 7.484 7.283 11.522 0.162-0.049 0.378-0.049 0.593-0.099-0.053-0.049-0.108-0.098-0.162-0.197-3.399-3.988-6.042-8.961-7.229-11.423-0.216 0.148-0.432 0.197-0.486 0.197z"></path>
<path d="M18.48 10.433c0.543-0.199 0.869-0.748 0.652-1.247s-0.815-0.798-1.357-0.599l-2.932 0.948c-3.421-2.943-3.583-3.443-4.941-3.642-1.738-0.25-3.367 0.898-3.638 2.495l-1.303 8.382c-0.271 1.597 0.978 3.093 2.715 3.343h0.163l1.412 3.892-2.878 3.892c-0.489 0.649-0.326 1.597 0.434 2.046 0.706 0.449 1.738 0.299 2.226-0.399l3.367-4.49c0.271-0.399 0.38-0.848 0.217-1.297l-1.792-4.939c0.272-0.349 0.489-0.798 0.543-1.247l1.194-7.434 1.357 1.197c0.187 0.167 0.435 0.269 0.707 0.269 0.136 0 0.266-0.026 0.386-0.072l-0.007 0.002 3.475-1.098z"></path>
</symbol>
<symbol id="icon-instagram" viewBox="0 0 32 32">
<path fill="none" stroke="#ff9f0e" style="stroke: var(--color1, #ff9f0e)" stroke-linejoin="round" stroke-linecap="round" stroke-miterlimit="4" stroke-width="2.1" d="M16 21.333c1.414 0 2.771-0.562 3.771-1.562s1.562-2.357 1.562-3.771c0-1.414-0.562-2.771-1.562-3.771s-2.357-1.562-3.771-1.562-2.771 0.562-3.771 1.562c-1 1-1.562 2.357-1.562 3.771s0.562 2.771 1.562 3.771c1 1 2.357 1.562 3.771 1.562z"></path>
<path fill="none" stroke="#ff9f0e" style="stroke: var(--color1, #ff9f0e)" stroke-linejoin="miter" stroke-linecap="butt" stroke-miterlimit="4" stroke-width="2.1" d="M4 21.333v-10.667c0-1.768 0.702-3.464 1.953-4.714s2.946-1.953 4.714-1.953h10.667c1.768 0 3.464 0.702 4.714 1.953s1.953 2.946 1.953 4.714v10.667c0 1.768-0.702 3.464-1.953 4.714s-2.946 1.953-4.714 1.953h-10.667c-1.768 0-3.464-0.702-4.714-1.953s-1.953-2.946-1.953-4.714z"></path>
<path fill="none" stroke="#ff9f0e" style="stroke: var(--color1, #ff9f0e)" stroke-linejoin="round" stroke-linecap="round" stroke-miterlimit="4" stroke-width="2.1" d="M23.333 8.681l0.014-0.015"></path>
</symbol>
<symbol id="icon-facebook" viewBox="0 0 32 32">
<path d="M29 16c0-7.18-5.82-13-13-13s-13 5.82-13 13c0 7.18 5.82 13 13 13v0c7.177-0.007 12.993-5.823 13-12.999v-0.001zM17 26.95v-7.95h3c0.552 0 1-0.448 1-1s-0.448-1-1-1v0h-3v-3c0-1.105 0.895-2 2-2v0h2c0.552 0 1-0.448 1-1s-0.448-1-1-1v0h-2c-2.206 0.007-3.993 1.794-4 3.999v3.001h-3c-0.552 0-1 0.448-1 1s0.448 1 1 1v0h3v7.95c-5.629-0.529-10-5.231-10-10.954 0-6.075 4.925-11 11-11s11 4.925 11 11c0 5.723-4.371 10.425-9.956 10.951l-0.044 0.003z"></path>
</symbol>
<symbol id="icon-arrow" viewBox="0 0 87 32">
<path d="M86.842 17.218c0.386-0.386 0.625-0.919 0.625-1.508s-0.239-1.122-0.625-1.508l-13.577-13.577c-0.388-0.402-0.932-0.651-1.534-0.651-1.178 0-2.133 0.955-2.133 2.133 0 0.602 0.249 1.146 0.651 1.534l0.001 0.001 12.068 12.068-12.068 12.068c-0.371 0.383-0.599 0.906-0.599 1.482 0 1.178 0.955 2.133 2.133 2.133 0.576 0 1.099-0.228 1.483-0.599l-0.001 0.001 13.577-13.577zM0 17.843h85.333v-4.267h-85.333v4.267z"></path>
</symbol>
<symbol id="icon-basket" viewBox="0 0 32 32">
<path d="M1.5 12.8h29v-2.134h-29v2.134zM29.866 12.166v0.936h2.134v-0.936h-2.134zM26.424 29.866h-20.847v2.134h20.846v-2.134zM2.134 13.104v-0.937h-2.134v0.936h2.134zM6.178 30.238c-2.55-4.992-4.045-10.889-4.045-17.134v0h-2.134c0 6.28 1.462 12.474 4.271 18.090l1.907-0.956zM5.577 29.867c0.256 0 0.488 0.146 0.602 0.371l-1.907 0.956c0.246 0.481 0.737 0.805 1.305 0.806h0v-2.134zM25.822 30.238c0.113-0.222 0.339-0.371 0.601-0.371 0 0 0 0 0.001 0h-0v2.133c0.001 0 0.002 0 0.003 0 0.567 0 1.059-0.325 1.299-0.798l0.004-0.008-1.907-0.956zM29.866 13.104c-0.001 6.246-1.495 12.142-4.145 17.352l0.101-0.218 1.907 0.956c2.693-5.271 4.271-11.496 4.271-18.091 0-0 0-0 0-0v-0h-2.134zM30.5 12.8c-0.35 0-0.633-0.283-0.634-0.633v-0h2.134c0-0 0-0.001 0-0.001 0-0.828-0.671-1.499-1.499-1.499-0 0-0.001 0-0.001 0h0v2.133zM1.5 10.667c-0.828 0-1.5 0.671-1.5 1.499v0h2.134c0 0.35-0.284 0.634-0.634 0.634v0-2.134zM8.382 12.282l6.4-10.666-1.832-1.097-6.4 10.666 1.832 1.096zM17.218 1.615l6.4 10.666 1.83-1.096-6.4-10.667-1.83 1.096zM10.666 21.334h10.667v-2.134h-10.667v2.134z"></path>
</symbol>
<symbol id="icon-logo" viewBox="0 0 135 32">
<path d="M15.559 18.557c0.182 3.691 2.861 4.162 5.358 7.263 3.695 4.435 6.668 3.118 7.174-0.080 0.476-3.073-2.121-5.266-2.293-8.551s2.271-6.253 1.525-9.188c-0.746-2.934-3.824-3.399-7.097 1.99-2.21 3.718-4.757 4.904-4.668 8.566z"></path>
<path d="M9.971 9.459c2.092 1.699 4.582 1.092 5.468-0.778s-0.185-5.15-2.303-6.731c-2.092-1.699-4.582-1.092-5.468 0.778-0.86 1.752 0.211 5.031 2.303 6.73z"></path>
<path d="M4.798 18.931c2.467 0.132 4.711-1.56 4.987-4.028 0.249-2.343-1.527-4.403-4.077-4.562-2.467-0.132-4.711 1.56-4.988 4.028-0.248 2.343 1.61 4.43 4.078 4.562z"></path>
<path d="M5.971 30.71c2.242 0.049 4.481-1.872 4.789-4.365 0.279-2.366-1.157-5.012-3.474-5.085-2.242-0.049-4.481 1.872-4.789 4.365-0.279 2.366 1.232 5.037 3.474 5.085z"></path>
<path d="M35.397 24.93v-13.026l-0.476-2.381 0.476-1.453h7.096c1.143 0 2.239 0.112 3.286 0.333 1.064 0.206 2.008 0.603 2.834 1.191 0.841 0.588 1.5 1.429 1.977 2.524 0.492 1.095 0.738 2.516 0.738 4.263s-0.246 3.183-0.738 4.31c-0.493 1.111-1.159 1.977-2 2.596-0.809 0.598-1.767 1.045-2.807 1.277l-0.050 0.009c-1.048 0.238-2.128 0.357-3.239 0.357h-7.097zM39.731 21.12h2.762c1.397 0 2.468-0.365 3.215-1.095 0.746-0.746 1.119-1.961 1.119-3.644s-0.381-2.85-1.143-3.501c-0.746-0.667-1.81-1-3.191-1h-2.762v9.24zM61.308 25.168c-1.017 0-2.009-0.119-2.977-0.357-1-0.271-1.869-0.731-2.607-1.343l0.011 0.009c-0.762-0.635-1.374-1.516-1.834-2.643-0.445-1.127-0.667-2.572-0.667-4.334s0.222-3.207 0.667-4.334c0.46-1.127 1.072-2.009 1.834-2.643 0.725-0.602 1.596-1.055 2.55-1.3l0.046-0.010c0.888-0.242 1.908-0.381 2.96-0.381 0.006 0 0.012 0 0.018 0h-0.001c1.016 0 2 0.127 2.953 0.381 1.001 0.264 1.871 0.725 2.606 1.342l-0.010-0.008c0.778 0.635 1.389 1.516 1.834 2.643 0.46 1.127 0.691 2.564 0.691 4.31s-0.231 3.183-0.691 4.31c-0.445 1.127-1.056 2.009-1.834 2.643-0.724 0.609-1.595 1.070-2.549 1.323l-0.046 0.010c-0.878 0.242-1.886 0.381-2.926 0.381-0.010 0-0.019 0-0.029-0h0.001zM61.308 21.12c1.174 0 2.064-0.35 2.667-1.048s0.905-1.89 0.905-3.572-0.302-2.873-0.905-3.572c-0.603-0.699-1.493-1.048-2.667-1.048-1.159 0-2.041 0.357-2.643 1.072s-0.905 1.898-0.905 3.548c0 1.651 0.301 2.834 0.905 3.548s1.484 1.072 2.643 1.072zM80.307 25.168c-1.223 0-2.381-0.119-3.477-0.357-1.080-0.254-2.041-0.699-2.882-1.334-0.826-0.635-1.476-1.516-1.953-2.643s-0.714-2.572-0.714-4.334c0-1.699 0.254-3.103 0.762-4.215 0.508-1.127 1.183-2.017 2.024-2.667 0.802-0.618 1.749-1.093 2.778-1.369l0.056-0.013c0.95-0.257 2.041-0.404 3.167-0.405h0c0.778 0 1.453 0.039 2.024 0.119s1.119 0.182 1.643 0.31l3.239 1.881-1.667 3.691-5.263-1.857c-0.014-0-0.030-0-0.046-0-0.752 0-1.465 0.167-2.104 0.466l0.031-0.013c-0.636 0.301-1.151 0.786-1.548 1.453-0.381 0.651-0.572 1.532-0.572 2.643 0 1.794 0.397 3.056 1.191 3.786 0.81 0.714 1.913 1.072 3.31 1.072 0.714 0 1.27-0.032 1.667-0.095 0.644-0.116 0.966-0.182 1.287-0.251l-0.334 0.061v-1.81h-3.024v-3.524h7.573l0.262 1.429-0.524 1.977v5.001c-0.175 0.063-0.572 0.175-1.191 0.333-0.604 0.159-1.398 0.31-2.381 0.452-0.969 0.143-2.080 0.214-3.334 0.214zM95.506 25.109c-0.703 0-1.411-0.101-2.125-0.304-0.748-0.221-1.398-0.57-1.957-1.026l0.010 0.008c-0.583-0.488-1.054-1.149-1.411-1.982-0.357-0.845-0.536-1.911-0.536-3.197 0-1.298 0.25-2.429 0.75-3.393 0.512-0.976 1.209-1.738 2.090-2.286s1.881-0.822 3.001-0.822c0.536 0 1.048 0.048 1.536 0.143 0.5 0.095 0.881 0.202 1.143 0.322l1.983 1.804-1.25 1.875-3.054-1.572c-0.667 0-1.268 0.161-1.804 0.482s-0.964 0.78-1.286 1.375c-0.31 0.583-0.464 1.274-0.464 2.072 0 0.917 0.161 1.673 0.482 2.268 0.333 0.595 0.786 1.042 1.357 1.34 0.572 0.286 1.209 0.429 1.911 0.429 0.714 0 1.328-0.060 1.84-0.179 0.499-0.122 0.927-0.269 1.338-0.449l-0.052 0.020c0.309-0.144 0.567-0.287 0.813-0.445l-0.028 0.017v2.429c-0.333 0.226-0.845 0.464-1.536 0.714-0.679 0.238-1.596 0.357-2.751 0.357zM102.061 24.93l-0.357-1.072 0.357-1.786v-9.788h2.5v7.341l-0.179 2.983h0.357l3.911-0.179 1.268-0.179 1.215 1.536-0.875 1.143h-8.198zM116.707 25.109c-1.226 0-2.191-0.202-2.893-0.607-0.691-0.405-1.185-1-1.482-1.786-0.286-0.798-0.429-1.768-0.429-2.911v-4.644l0.018-1.804-0.018-1.072h2.536v7.698c0 0.834 0.167 1.512 0.5 2.036 0.333 0.512 0.923 0.768 1.768 0.768s1.441-0.238 1.786-0.714c0.357-0.488 0.536-1.185 0.536-2.090v-7.698h2.483v7.519c0 1.119-0.143 2.078-0.429 2.876-0.274 0.786-0.762 1.387-1.465 1.804-0.691 0.417-1.661 0.625-2.911 0.625zM123.828 24.93v-9.788l-0.357-1.786 0.357-1.072h4.644c0.905 0 1.685 0.107 2.34 0.322 0.667 0.202 1.185 0.536 1.554 1s0.554 1.084 0.554 1.857c0 0.476-0.083 0.929-0.25 1.357-0.166 0.432-0.443 0.79-0.797 1.049l-0.006 0.005c0.75 0.262 1.322 0.655 1.715 1.179s0.589 1.22 0.589 2.090c0 1.322-0.369 2.286-1.107 2.893-0.738 0.595-1.852 0.893-3.34 0.893h-5.894zM126.329 17.375h2.465c1 0 1.5-0.441 1.5-1.322 0-0.441-0.101-0.792-0.304-1.054s-0.601-0.393-1.197-0.393h-2.465v2.768zM126.329 22.608h3.215c0.631 0 1.089-0.143 1.375-0.429 0.298-0.286 0.446-0.685 0.446-1.197 0-0.488-0.161-0.857-0.482-1.107-0.31-0.25-0.816-0.375-1.518-0.375h-3.036v3.108z"></path>
</symbol>
<symbol id="icon-logo-footer" viewBox="0 0 154 32">
<path d="M16.725 18.302c0.195 3.323 3.075 3.746 5.76 6.538 3.972 3.991 7.168 2.806 7.711-0.073 0.513-2.766-2.28-4.74-2.464-7.696s2.441-5.63 1.639-8.27c-0.802-2.641-4.11-3.060-7.629 1.791-2.375 3.347-5.113 4.415-5.018 7.711z"></path>
<path d="M10.718 10.111c2.249 1.529 4.926 0.984 5.878-0.7s-0.198-4.636-2.475-6.059c-2.249-1.529-4.926-0.984-5.878 0.7-0.924 1.577 0.227 4.529 2.476 6.059z"></path>
<path d="M5.158 18.638c2.652 0.118 5.065-1.404 5.361-3.626 0.267-2.109-1.642-3.964-4.383-4.106-2.652-0.118-5.065 1.404-5.361 3.626-0.267 2.109 1.731 3.988 4.383 4.106z"></path>
<path d="M6.42 29.241c2.41 0.044 4.817-1.685 5.147-3.93 0.3-2.13-1.244-4.512-3.734-4.578-2.41-0.044-4.817 1.685-5.147 3.93-0.3 2.13 1.324 4.534 3.734 4.578z"></path>
<path d="M38.052 25.6v-14.003l-0.512-2.56 0.512-1.562h8.678c1.212 0 2.381 0.119 3.507 0.358 1.143 0.222 2.159 0.649 3.046 1.28 0.904 0.631 1.621 1.536 2.15 2.714s0.794 2.705 0.794 4.582-0.273 3.422-0.819 4.634c-0.529 1.195-1.246 2.125-2.15 2.79s-1.92 1.126-3.046 1.382-2.287 0.384-3.482 0.384h-8.678zM43.735 20.736h1.946c1.007 0 1.852-0.111 2.534-0.333 0.7-0.222 1.229-0.64 1.587-1.254 0.358-0.631 0.538-1.545 0.538-2.739 0-1.212-0.188-2.099-0.563-2.662-0.358-0.58-0.888-0.956-1.587-1.126-0.683-0.188-1.519-0.282-2.509-0.282h-1.946v8.397zM67.34 25.856c-1.092 0-2.185-0.128-3.277-0.384-1.075-0.273-2.065-0.751-2.97-1.434-0.888-0.683-1.604-1.63-2.15-2.842s-0.819-2.765-0.819-4.659 0.273-3.447 0.819-4.659c0.546-1.212 1.263-2.159 2.15-2.842 0.904-0.683 1.894-1.152 2.97-1.408 1.092-0.273 2.184-0.41 3.277-0.41s2.176 0.137 3.251 0.41c1.092 0.273 2.082 0.751 2.97 1.434 0.904 0.683 1.63 1.63 2.176 2.842s0.819 2.756 0.819 4.634-0.273 3.422-0.819 4.634c-0.546 1.212-1.272 2.159-2.176 2.842-0.888 0.683-1.877 1.161-2.97 1.434-1.075 0.273-2.159 0.41-3.251 0.41zM67.34 20.736c1.109 0 1.946-0.333 2.509-0.998 0.563-0.683 0.845-1.749 0.845-3.2 0-1.434-0.282-2.492-0.845-3.174s-1.4-1.024-2.509-1.024c-2.219 0-3.328 1.399-3.328 4.198 0 1.434 0.273 2.492 0.819 3.174 0.563 0.683 1.399 1.024 2.509 1.024zM88.539 25.856c-1.485 0-2.85-0.128-4.096-0.384-1.246-0.273-2.33-0.751-3.251-1.434s-1.638-1.63-2.15-2.842c-0.495-1.212-0.742-2.765-0.742-4.659 0-1.877 0.265-3.422 0.794-4.634s1.246-2.159 2.15-2.842c0.922-0.683 1.962-1.161 3.123-1.434s2.372-0.41 3.635-0.41c0.836 0 1.604 0.043 2.304 0.128s1.331 0.196 1.894 0.333l3.482 2.022-1.792 4.506-5.658-1.715c-0.734 0-1.408 0.119-2.022 0.358-0.614 0.222-1.11 0.631-1.485 1.229-0.358 0.58-0.538 1.408-0.538 2.483 0 1.638 0.35 2.79 1.050 3.456 0.717 0.649 1.724 0.973 3.021 0.973 0.495 0 0.905-0.026 1.229-0.077 0.324-0.068 0.598-0.145 0.819-0.23v-1.408h-2.227v-4.045h8.141l0.282 1.536-0.563 2.637v5.376c-0.188 0.068-0.614 0.188-1.28 0.358-0.649 0.171-1.494 0.333-2.534 0.486s-2.236 0.23-3.584 0.23zM104.794 25.792c-0.883 0-1.741-0.102-2.573-0.307-0.819-0.205-1.555-0.563-2.208-1.075s-1.171-1.222-1.555-2.131c-0.384-0.909-0.576-2.067-0.576-3.475 0-1.267 0.186-2.342 0.557-3.226 0.371-0.896 0.877-1.619 1.517-2.17s1.376-0.954 2.208-1.21c0.832-0.256 1.709-0.384 2.63-0.384 0.653 0 1.286 0.051 1.901 0.154 0.627 0.102 1.082 0.218 1.363 0.346l2.323 1.939-1.92 3.168-3.667-1.69c-0.435 0-0.845 0.122-1.229 0.365-0.371 0.23-0.678 0.576-0.922 1.037-0.23 0.448-0.346 1.005-0.346 1.67 0 0.845 0.128 1.498 0.384 1.958 0.269 0.448 0.646 0.755 1.133 0.922 0.499 0.166 1.088 0.25 1.766 0.25 0.653 0 1.267-0.064 1.843-0.192 0.589-0.141 1.107-0.301 1.555-0.48s0.787-0.333 1.018-0.461v3.84c-0.256 0.128-0.621 0.288-1.094 0.48-0.461 0.179-1.037 0.339-1.728 0.48-0.678 0.128-1.472 0.192-2.381 0.192zM112.49 25.6l-0.384-1.152 0.384-1.92v-10.522h4.224v7.315l-0.192 2.63h0.384l3.437-0.192 1.363-0.192 1.69 2.803-0.941 1.229h-9.965zM130.306 25.792c-2.24 0-3.853-0.448-4.838-1.344-0.986-0.909-1.478-2.362-1.478-4.358v-4.992l0.019-1.939-0.019-1.152h4.301v7.123c0 0.589 0.045 1.114 0.134 1.574 0.090 0.448 0.282 0.8 0.576 1.056s0.742 0.384 1.344 0.384c0.614 0 1.069-0.115 1.363-0.346s0.486-0.57 0.576-1.018c0.090-0.448 0.134-0.998 0.134-1.651v-7.123h4.205v8.083c0 1.306-0.211 2.381-0.634 3.226-0.422 0.832-1.094 1.453-2.016 1.862s-2.144 0.614-3.667 0.614zM139.115 25.6v-10.522l-0.384-1.92 0.384-1.152h7.296c1.446 0 2.605 0.282 3.475 0.845s1.306 1.421 1.306 2.573c0 0.627-0.115 1.146-0.346 1.555-0.218 0.397-0.499 0.736-0.845 1.018 0.435 0.102 0.845 0.294 1.229 0.576 0.384 0.269 0.698 0.634 0.941 1.094 0.243 0.448 0.365 1.005 0.365 1.67 0 1.344-0.397 2.394-1.19 3.149-0.781 0.742-2.042 1.114-3.782 1.114h-8.448zM143.339 17.286h2.266c0.435 0 0.749-0.064 0.941-0.192 0.192-0.141 0.288-0.352 0.288-0.634 0-0.294-0.141-0.499-0.422-0.614-0.282-0.128-0.614-0.192-0.998-0.192h-2.074v1.632zM143.339 21.952h3.264c0.512 0 0.87-0.077 1.075-0.23 0.205-0.166 0.307-0.384 0.307-0.653 0-0.614-0.397-0.922-1.19-0.922h-3.456v1.805z"></path>
</symbol>
<symbol id="icon-Arrow-slider" viewBox="0 0 32 32">
<path fill="#839aa9" style="fill: var(--color1, #839aa9)" d="M0 16c0 8.837 7.163 16 16 16s16-7.163 16-16c0-8.837-7.163-16-16-16s-16 7.163-16 16z"></path>
<path fill="#fff" style="fill: var(--color2, #fff)" d="M10.395 16.514c-0.284-0.284-0.284-0.745 0-1.028l4.628-4.628c0.284-0.284 0.745-0.284 1.029 0s0.284 0.745 0 1.028l-4.114 4.114 4.114 4.114c0.284 0.284 0.284 0.744 0 1.029s-0.745 0.284-1.028 0l-4.628-4.628zM22.546 16.727h-11.636v-1.455h11.636v1.455z"></path>
</symbol>
<symbol id="icon-bone" viewBox="0 0 73 32">
<path d="M72.673 13.749c0.834-1.892 0.379-4.677 0-6.753-0.295-1.765-1.027-3.222-2.124-4.502s-2.718-1.886-4.247-2.251c-1.214-0.314-3.038-0.336-4.247 0s-1.168 1.335-2.124 2.251c-2.383 2.173-5.455 2.326-8.494 2.251h-29.731c-3.039 0.076-6.112-0.078-8.494-2.251-0.956-0.916-0.914-1.915-2.124-2.251s-3.034-0.314-4.247 0c-1.529 0.365-3.151 0.971-4.247 2.251s-1.828 2.737-2.124 4.502c-0.38 2.076-0.834 4.861 0 6.753 0.302 0.681 2.124 1.486 2.124 2.251s-1.821 1.57-2.124 2.251c-0.832 1.892-0.378 4.677 0 6.753 0.296 1.766 1.028 3.22 2.124 4.502s2.718 1.882 4.247 2.251c1.214 0.313 3.038 0.336 4.247 0s1.168-1.335 2.124-2.251c2.382-2.176 5.454-2.322 8.494-2.251h29.731c3.040-0.071 6.113 0.075 8.494 2.251 0.956 0.916 0.914 1.915 2.124 2.251s3.034 0.313 4.247 0c1.529-0.369 3.151-0.969 4.247-2.251s1.828-2.736 2.124-4.502c0.378-2.076 0.832-4.861 0-6.753-0.302-0.681-2.124-1.486-2.124-2.251s1.822-1.57 2.124-2.251z"></path>
</symbol>
<symbol id="icon-Star" viewBox="0 0 34 32">
<path d="M16.231 0l3.832 11.793h12.4l-10.032 7.288 3.832 11.793-10.032-7.288-10.032 7.288 3.832-11.793-10.032-7.288h12.4l3.832-11.793z"></path>
</symbol>
<symbol id="icon-close" viewBox="0 0 32 32">
<path stroke-linejoin="miter" stroke-linecap="round" stroke-miterlimit="4" stroke-width="2" d="M8 8l8 8 8-8"></path>
<path stroke-linejoin="miter" stroke-linecap="round" stroke-miterlimit="4" stroke-width="2" d="M8 24l8-8 8 8"></path>
</symbol>
<symbol id="icon-burger-menu" viewBox="0 0 32 32">
<path d="M29.333 24.007c0 0.733-0.595 1.327-1.327 1.327h-10.68c-0.352 0-0.689-0.14-0.938-0.389s-0.389-0.586-0.389-0.938c0-0.352 0.14-0.689 0.389-0.938s0.586-0.389 0.938-0.389h10.68c0.733 0 1.327 0.593 1.327 1.327zM29.333 16c0 0.733-0.595 1.327-1.327 1.327h-24.013c-0.352 0-0.689-0.14-0.938-0.389s-0.389-0.586-0.389-0.938c0-0.352 0.14-0.689 0.389-0.938s0.586-0.389 0.938-0.389h24.013c0.733 0 1.327 0.595 1.327 1.327zM28.007 9.32c0.352 0 0.689-0.14 0.938-0.389s0.389-0.586 0.389-0.938c0-0.352-0.14-0.689-0.389-0.938s-0.586-0.389-0.938-0.389h-16.013c-0.174 0-0.347 0.034-0.508 0.101s-0.307 0.164-0.43 0.288c-0.123 0.123-0.221 0.269-0.288 0.43s-0.101 0.333-0.101 0.508c0 0.174 0.034 0.347 0.101 0.508s0.164 0.307 0.288 0.43c0.123 0.123 0.269 0.221 0.43 0.288s0.333 0.101 0.508 0.101h16.013z"></path>
</symbol>
<symbol id="icon-hero-arrow" viewBox="0 0 41 32">
<path fill="#fcb62a" style="fill: var(--color1, #fcb62a)" d="M8.173 25.125c1.281-8.416 8.275-15.263 15.398-15.252 0.042 0.215 0.135 0.486 0.067 0.694-1.148 3.54 0.383 6.288 2.864 8.723 1.91 1.922 4.115 3.49 6.752 4.288 0.755 0.205 1.509 0.411 2.328 0.461 2.999 0.236 4.577-1.366 4.427-4.295-0.099-1.97-0.984-3.617-2.207-5.126-2.086-2.623-4.815-4.595-8.019-5.959-0.642-0.252-1.284-0.503-2.193-0.877 3.11-3.367 7.32-4.119 11.348-5.465-0.71-0.043-1.413-0.193-2.129-0.13-3.706 0.57-7.171 1.685-9.953 4.17-0.809 0.694-1.552 1.179-2.753 1.106-4.643-0.231-8.533 1.549-11.794 4.695-2.445 2.346-4.312 5.099-5.597 8.206-0.321 0.777-0.643 1.553-1.212 2.793-1.495-2.427-2.792-4.524-4.088-6.621-0.167 0.043-0.337 0.139-0.504 0.182-0.080 0.42-0.277 0.939-0.135 1.319 0.654 1.845 1.309 3.69 2.075 5.489 0.722 1.637 1.556 3.227 2.278 4.864 0.725 1.584 1.576 2.008 2.691 0.802 1.934-2.059 3.659-4.289 5.439-6.517 0.238-0.304 0.055-0.899 0.029-1.379-0.552 0.072-1.259-0.024-1.606 0.273-1.217 1.094-2.22 2.254-3.505 3.555zM25.815 9.903c5.295 1.226 9.295 3.913 11.689 8.678 0.484 1.038 0.844 2.335-0.188 3.068-0.687 0.489-2.004 0.515-2.926 0.352-3.516-0.746-6.129-2.817-8.264-5.549-1.47-1.948-1.838-3.988-0.312-6.549z"></path>
</symbol>
<symbol id="icon-orange-paw" viewBox="0 0 32 32">
<path fill="#fcb62a" style="fill: var(--color1, #fcb62a)" d="M15.062 15.601c1.657 2.266 4.052 1.189 7.373 1.886 4.85 0.933 6.756-1.437 5.865-3.741-0.863-2.209-3.895-2.275-5.378-4.286s-0.688-5.165-2.499-6.657-4.533-0.206-5.022 4.921c-0.298 3.513-1.907 5.581-0.339 7.875z"></path>
<path fill="#fcb62a" style="fill: var(--color1, #fcb62a)" d="M17.637 22.272c0.701-2.482 2.596-4.217 4.114-3.677s2.254 2.972 1.493 5.576c-0.701 2.482-2.596 4.217-4.114 3.677s-2.166-3.001-1.493-5.576z"></path>
<path fill="#fcb62a" style="fill: var(--color1, #fcb62a)" d="M9.682 11.194c2.507 0.016 4.475-1.432 4.434-3.159s-2.098-3.116-4.577-3.039c-2.507-0.016-4.475 1.432-4.434 3.159 0.013 1.634 2.069 3.023 4.577 3.039z"></path>
<path fill="#fcb62a" style="fill: var(--color1, #fcb62a)" d="M9.878 20.409c1.877-2.020 4.445-2.74 5.709-1.523s0.783 3.905-1.093 5.925c-1.877 2.020-4.445 2.74-5.709 1.523-1.173-1.246-0.755-3.813 1.093-5.925z"></path>
<path fill="#fcb62a" style="fill: var(--color1, #fcb62a)" d="M9.143 19.082c2.405-1.273 3.814-3.534 3.014-5.19-0.772-1.564-3.348-1.846-5.845-0.544-2.405 1.273-3.814 3.534-3.014 5.19 0.772 1.564 3.439 1.817 5.845 0.544z"></path>
</symbol>
<symbol id="icon-pink-paw" viewBox="0 0 31 32">
<path fill="#ff6e9f" style="fill: var(--color2, #ff6e9f)" d="M15.358 15.168c-1.318-2.136-3.52-1.602-6.442-2.616-4.258-1.456-6.205 0.318-5.609 2.356 0.542 1.994 3.35 2.484 4.361 4.446 1.146 1.906 0.102 4.441 1.627 5.983 1.471 1.497 4.036 0.842 4.991-3.475 0.619-2.894 2.309-4.457 1.073-6.695z"></path>
<path fill="#ff6e9f" style="fill: var(--color2, #ff6e9f)" d="M13.957 9.020c-0.857 2.083-2.701 3.164-4.065 2.524s-1.767-2.935-0.856-4.973c0.857-2.083 2.647-3.209 4.065-2.524s1.713 2.89 0.856 4.973z"></path>
<path fill="#ff6e9f" style="fill: var(--color2, #ff6e9f)" d="M19.932 19.808c-2.259-0.396-4.148 0.527-4.271 2.017s1.629 2.967 3.875 3.268c2.259 0.396 4.149-0.527 4.271-2.017s-1.629-2.967-3.875-3.268z"></path>
<path fill="#ff6e9f" style="fill: var(--color2, #ff6e9f)" d="M20.688 11.763c-1.787 1.437-4.103 1.586-5.202 0.323s-0.488-3.523 1.299-4.96c1.787-1.437 4.103-1.586 5.202-0.323s0.488 3.523-1.299 4.96z"></path>
<path fill="#ff6e9f" style="fill: var(--color2, #ff6e9f)" d="M21.403 12.772c-2.249 0.675-3.54 2.407-2.937 3.911s2.865 2.167 5.114 1.492c2.249-0.675 3.54-2.407 2.937-3.911s-2.865-2.167-5.114-1.492z"></path>
</symbol>
<symbol id="icon-purple-paw" viewBox="0 0 31 32">
<path fill="#d9a6ff" style="fill: var(--color3, #d9a6ff)" d="M15.23 15.563c-2.585 0.573-2.818 3.013-4.86 5.619-2.93 3.812-1.884 6.472 0.314 6.646s3.613-2.507 5.962-2.815c2.292-0.452 4.453 1.578 6.446 0.581 2.021-0.924 2.231-3.856-1.671-6.416-2.616-1.672-3.594-3.942-6.191-3.615z"></path>
<path fill="#d9a6ff" style="fill: var(--color3, #d9a6ff)" d="M8.045 14.646c1.694 1.855 2.243 4.274 1.238 5.398-1.074 1.153-3.308 0.582-5.001-1.273s-2.243-4.274-1.238-5.398c1.074-1.153 3.308-0.582 5.001 1.273z"></path>
<path fill="#d9a6ff" style="fill: var(--color3, #d9a6ff)" d="M21.015 12.514c-1.103 2.252-0.836 4.617 0.523 5.333s3.38-0.467 4.483-2.719c1.103-2.252 0.836-4.617-0.523-5.333-1.43-0.686-3.451 0.496-4.483 2.719z"></path>
<path fill="#d9a6ff" style="fill: var(--color3, #d9a6ff)" d="M13.288 9.090c0.899 2.499 0.301 5.011-1.236 5.563s-3.508-1.065-4.407-3.564c-0.899-2.499-0.301-5.011 1.236-5.563s3.508 1.065 4.407 3.564z"></path>
<path fill="#d9a6ff" style="fill: var(--color3, #d9a6ff)" d="M14.773 8.534c-0.060 2.521 1.2 4.493 2.739 4.497 1.608-0.025 2.926-2.022 3.013-4.474 0.060-2.521-1.2-4.493-2.739-4.497-1.566-0.073-2.953 1.953-3.013 4.474z"></path>
</symbol>
<symbol id="icon-contact-element" viewBox="0 0 21 32">
<path d="M1.099 3.545c-5.955 1.717-11.464 6.442-9.904 11.856l2.286 7.93c1.56 5.414 8.753 6.529 14.708 4.813s11.464-6.442 9.904-11.856l-2.3-7.978c-1.547-5.366-8.739-6.482-14.695-4.765zM1.203 26.866c-3.515-0.324-6.085-1.846-6.646-3.793l-1.259-4.369c1.685 1.469 4.1 2.161 6.715 2.282-0.258 1.052-0.173 2.416 0.197 3.698 0.233 0.807 0.581 1.53 0.994 2.182zM-3.952 18.322c1.711-2.139 4.558-3.937 7.898-4.9s6.707-0.956 9.295-0.056c-1.597 1.952-4.313 3.815-7.912 4.852-3.585 1.085-6.877 0.953-9.281 0.104zM17.032 16.594c0.876 3.039-2.775 7.692-9.403 9.603-1.424 0.41-2.76 0.641-4.059 0.707-0.883 0.049-1.874-1.054-2.299-2.526-0.246-0.855-0.284-1.667-0.086-2.341 0.172-0.667 0.556-1.086 1.050-1.125 1.234-0.098 2.478-0.354 3.669-0.698 4.48-1.291 8.713-4.312 9.855-8.035l1.273 4.416zM14.221 11.901c-2.867-1.385-6.874-1.567-10.836-0.426s-7.257 3.429-8.947 6.128c-1.115-0.656-1.894-1.511-2.181-2.509-0.876-3.039 2.775-7.692 9.403-9.603s12.21 0.132 13.072 3.124c0.287 0.997 0.083 2.136-0.511 3.285z"></path>
<path d="M3.401 25.152c0.357-0.103 0.494-0.718 0.305-1.374s-0.632-1.104-0.99-1.001c-0.357 0.103-0.494 0.718-0.305 1.374s0.632 1.104 0.99 1.001z"></path>
<path d="M5.515 24.8c0.358-0.103 0.494-0.718 0.305-1.374s-0.632-1.104-0.99-1.001c-0.358 0.103-0.494 0.718-0.305 1.374s0.632 1.104 0.99 1.001z"></path>
<path d="M7.614 24.298c0.357-0.103 0.494-0.718 0.305-1.374s-0.632-1.104-0.99-1.001c-0.357 0.103-0.494 0.718-0.305 1.374s0.632 1.104 0.99 1.001z"></path>
<path d="M9.632 23.613c0.357-0.103 0.494-0.718 0.305-1.374s-0.632-1.104-0.99-1.001c-0.358 0.103-0.494 0.718-0.305 1.374s0.632 1.104 0.99 1.001z"></path>
</symbol>
<symbol id="icon-contact-paw" viewBox="0 0 32 32">
<path d="M21.149 15.422c1.953 2.349 5.221-1.079 5.22-3.537 2.229-3.987-1.949-6.633-4.365-2.928-2.416 1.247-3.644 5.918-0.855 6.465zM21.702 14.701c-2.603-0.264-1.006-4.357 0.621-5.267l0.078-0.399c2.090-3.277 5.344-0.982 3.254 2.296l-0.078 0.399c0.094 1.985-2.55 5.197-4.271 2.894l0.396 0.078z"></path>
<path d="M13.884 10.958c1.951 2.36 5.296-1.465 5.298-3.936 2.234-4.011-1.976-6.494-4.443-2.529-2.418 1.256-3.644 5.918-0.855 6.465zM14.437 10.238c-2.603-0.263-1.007-4.35 0.621-5.267l0.078-0.399c2.094-3.297 5.348-1.001 3.254 2.296 0.092 1.995-2.63 5.607-4.349 3.293l0.396 0.078z"></path>
<path d="M23.616 24.082c1.821 1.822 5.060 0.117 4.589-2.417 1.531-2.874-2.842-5.389-4.839-2.606-2.328 0.765-2.034 4.331 0.25 5.023zM24.169 23.362l-0.396-0.078c-1.818-0.601-1.858-3.362-0.089-3.748l0.396 0.078c1.393-2.169 4.725-0.273 3.332 1.896l-0.078 0.399c0.377 1.783-1.843 3.347-3.243 1.852l0.078-0.399z"></path>
<path d="M5.049 13.128c1.821 1.822 5.060 0.117 4.589-2.417 1.531-2.875-2.842-5.389-4.839-2.606-2.328 0.765-2.034 4.332 0.25 5.023zM5.602 12.407l-0.396-0.078c-1.818-0.601-1.858-3.362-0.089-3.748l0.396 0.078c1.393-2.169 4.725-0.273 3.332 1.896l-0.078 0.399c0.377 1.783-1.843 3.347-3.243 1.852l0.078-0.399z"></path>
<path d="M19.734 22.72c3.778-6.851-7.543-13.799-11.743-7.275-8.055 2.585-3.997 8.619 0.98 11.799 5.024 2.944 12.286 3.857 10.763-4.523zM18.941 22.565c1.428 7.627-4.863 6.81-9.418 3.958s-8.833-7.761-1.293-10.202l0.078-0.399c3.873-6.098 14.037 0.453 10.632 6.643z"></path>
</symbol>
<symbol id="icon-contact-bone" viewBox="0 0 30 32">
<path d="M28.457 7.813c-1.019-2.423-3.494-3.71-5.507-2.863-1.775 0.747-2.615 2.826-2.115 4.98l-10.704 4.503c-1.189-1.864-3.264-2.718-5.039-1.971-2.014 0.847-2.825 3.515-1.805 5.939 0.443 1.052 1.15 1.918 2.028 2.45-0.221 1.031-0.11 2.111 0.333 3.163 1.019 2.424 3.494 3.71 5.507 2.863 1.775-0.747 2.615-2.827 2.115-4.98l10.678-4.491c1.189 1.864 3.264 2.718 5.039 1.971 2.014-0.847 2.825-3.515 1.805-5.939-0.443-1.052-1.15-1.918-2.028-2.45 0.248-1.042 0.137-2.122-0.306-3.174zM27.614 12.258c0.771 0.276 1.424 0.94 1.773 1.769 0.63 1.499 0.133 3.134-1.112 3.658-1.219 0.513-2.708-0.212-3.365-1.699-0.201-0.478-0.667-0.695-1.064-0.528l-11.896 5.004c-0.397 0.167-0.528 0.672-0.367 1.13 0.591 1.478 0.107 3.070-1.139 3.594s-2.762-0.264-3.392-1.763c-0.349-0.829-0.366-1.76-0.024-2.504 0.118-0.237 0.091-0.526-0.017-0.781s-0.321-0.466-0.547-0.558c-0.771-0.276-1.424-0.94-1.773-1.769-0.63-1.499-0.133-3.134 1.112-3.658 1.219-0.513 2.709 0.212 3.365 1.699 0.201 0.478 0.667 0.695 1.064 0.528l11.949-5.026c0.397-0.167 0.528-0.672 0.367-1.13-0.59-1.478-0.106-3.070 1.139-3.594s2.762 0.264 3.392 1.763c0.349 0.829 0.366 1.76 0.024 2.504-0.118 0.237-0.091 0.526 0.017 0.781 0.054 0.277 0.268 0.488 0.494 0.58z"></path>
<path d="M14.262 9.28c0.397-0.167 0.554-0.684 0.353-1.162l-0.952-2.264c-0.201-0.478-0.68-0.727-1.078-0.56s-0.554 0.684-0.353 1.162l0.952 2.264c0.201 0.478 0.68 0.727 1.078 0.56z"></path>
<path d="M17.154 8.889c0.133 0.019 0.226 0.018 0.332-0.027 0.265-0.111 0.449-0.414 0.435-0.746l-0.064-2.375c-0.015-0.481-0.389-0.925-0.827-1.003-0.425-0.046-0.768 0.323-0.779 0.816l0.064 2.375c0.015 0.481 0.389 0.925 0.84 0.96z"></path>
<path d="M10.859 11.049c0.267 0.263 0.572 0.322 0.837 0.211 0.106-0.045 0.199-0.121 0.251-0.218 0.264-0.336 0.208-0.913-0.138-1.293l-1.653-1.707c-0.333-0.348-0.838-0.361-1.128-0.013-0.264 0.336-0.208 0.913 0.138 1.293l1.693 1.727z"></path>
<path d="M19.842 22.545c-0.397 0.167-0.554 0.684-0.353 1.162l0.952 2.264c0.201 0.478 0.68 0.727 1.078 0.56s0.554-0.684 0.353-1.162l-0.952-2.264c-0.201-0.478-0.68-0.727-1.078-0.56z"></path>
<path d="M16.95 22.936c-0.425-0.046-0.768 0.323-0.779 0.816l0.064 2.375c0.015 0.481 0.389 0.925 0.827 1.003 0.133 0.019 0.226 0.018 0.332-0.027 0.265-0.111 0.449-0.414 0.435-0.746l-0.064-2.375c0.011-0.567-0.363-1.011-0.814-1.046z"></path>
<path d="M23.245 20.776c-0.333-0.348-0.838-0.361-1.128-0.013-0.264 0.336-0.208 0.913 0.138 1.293l1.653 1.706c0.267 0.263 0.572 0.322 0.837 0.211 0.106-0.045 0.199-0.121 0.251-0.218 0.264-0.336 0.208-0.913-0.138-1.293l-1.613-1.686z"></path>
</symbol>
<symbol id="icon-sort-mobile" viewBox="0 0 32 32">
<path d="M11.138 4.862c-0.26-0.26-0.682-0.26-0.943 0l-4.243 4.243c-0.26 0.26-0.26 0.682 0 0.943s0.682 0.26 0.943 0l3.771-3.771 3.771 3.771c0.26 0.26 0.683 0.26 0.943 0s0.26-0.682 0-0.943l-4.243-4.243zM10 5.333v21.333h1.333v-21.333h-1.333z"></path>
<path d="M20.862 27.138c0.26 0.26 0.683 0.26 0.943 0l4.243-4.243c0.26-0.26 0.26-0.683 0-0.943s-0.682-0.26-0.943 0l-3.771 3.771-3.771-3.771c-0.26-0.26-0.683-0.26-0.943 0s-0.26 0.682 0 0.943l4.243 4.243zM20.667 5.333v21.333h1.333v-21.333h-1.333z"></path>
</symbol>
<symbol id="icon-arrow-rounded" viewBox="0 0 32 32">
<path d="M9.534 3.867c-0.333 0.333-0.5 0.728-0.5 1.184s0.167 0.849 0.5 1.183l9.767 9.767-9.8 9.8c-0.311 0.311-0.467 0.7-0.467 1.167s0.167 0.866 0.5 1.2c0.333 0.333 0.728 0.5 1.184 0.5s0.849-0.167 1.183-0.5l11.2-11.233c0.133-0.133 0.228-0.278 0.284-0.433s0.082-0.322 0.082-0.5-0.027-0.344-0.082-0.5c-0.056-0.156-0.151-0.3-0.284-0.433l-11.233-11.233c-0.311-0.311-0.694-0.467-1.149-0.467s-0.851 0.167-1.184 0.5z"></path>
</symbol>
</defs>
</svg>
